<?xml version="1.0" standalone="no"?>
<!DOCTYPE svg PUBLIC "-//W3C//DTD SVG 20010904//EN"
 "http://www.w3.org/TR/2001/REC-SVG-20010904/DTD/svg10.dtd">
<svg version="1.0" xmlns="http://www.w3.org/2000/svg"
 width="1024.000000pt" height="1024.000000pt" viewBox="0 0 1024.000000 1024.000000"
 preserveAspectRatio="xMidYMid meet">

<g transform="translate(0.000000,1024.000000) scale(0.100000,-0.100000)"
fill="#000000" stroke="none">
<path d="M0 5120 l0 -5120 5120 0 5120 0 0 5120 0 5120 -5120 0 -5120 0 0
-5120z m3644 2205 c333 -39 558 -115 778 -261 167 -111 308 -267 393 -434 66
-131 125 -335 141 -491 l6 -66 -158 -6 c-88 -4 -272 -7 -411 -7 l-251 0 -21
63 c-62 185 -209 329 -408 398 -32 11 -101 26 -153 34 -467 71 -801 -145 -778
-504 7 -109 38 -180 107 -250 101 -102 213 -146 662 -260 488 -123 669 -181
844 -268 265 -132 422 -281 527 -500 146 -304 152 -727 15 -1049 -174 -410
-626 -703 -1202 -779 -144 -19 -480 -22 -610 -6 -226 29 -403 80 -584 167
-384 184 -595 443 -692 850 -24 101 -49 278 -49 350 l0 51 143 6 c78 4 261 7
407 7 l265 0 25 -83 c48 -162 138 -317 232 -402 63 -57 181 -116 293 -147 70
-19 106 -22 290 -22 174 -1 221 2 275 17 178 50 311 151 378 285 36 75 37 78
37 191 0 107 -2 121 -29 179 -43 93 -138 178 -268 241 -116 56 -216 87 -638
196 -454 117 -650 186 -825 290 -184 108 -295 225 -380 400 -90 183 -122 348
-112 580 14 328 136 608 360 822 340 324 843 472 1391 408z"/>
</g>
</svg>
